<svg width="366" height="78" viewBox="0 0 366 78" fill="none" xmlns="http://www.w3.org/2000/svg">
<path d="M50.2884 32.1347V51.8844C50.2884 56.6941 46.3819 60.5364 41.6166 60.5364H15.204C14.9227 60.5364 14.7598 60.5907 14.6882 60.6252C14.6339 60.6499 14.6142 60.6697 14.592 60.7042L10.1278 67.3277C8.38552 69.9411 4.93556 70.4914 2.46531 68.875L2.43323 68.8528L2.40115 68.8306C0.816835 67.7497 0 66.0099 0 64.2455V28.2307C0 23.4555 3.83987 19.5787 8.6397 19.5787H31.748C31.7825 19.5787 31.8146 19.5787 31.8467 19.5787H33.4335C34.7537 19.5787 35.9926 18.6187 35.5854 16.985C35.2103 15.4846 34.4897 14.0138 33.9739 13.1945C33.2459 12.0322 33.1719 10.5737 33.779 9.34479C34.3861 8.11336 35.5854 7.28419 36.9525 7.14846C38.3518 7.01027 40.1113 7.27925 41.9276 8.12077C42.1151 7.09664 42.7049 6.17122 43.5884 5.56908C44.7483 4.77446 46.2437 4.65354 47.5171 5.25074C49.2692 6.07004 51.1151 7.93075 52.2725 10.7638C54.3504 10.2677 56.8083 10.1764 59.4192 11.0155C61.1146 11.5609 62.2374 13.1649 62.1708 14.9392L62.1683 14.9763C62.9975 15.3637 63.8168 15.8671 64.5991 16.5087C65.8478 17.5304 66.3512 19.206 65.8749 20.7459C65.6676 21.4147 65.2925 22.002 64.8014 22.461C65.0902 22.8189 65.3666 23.2038 65.6257 23.6184C66.4795 24.9757 66.4302 26.7155 65.4998 28.0234C64.5695 29.3313 62.9407 29.9507 61.3762 29.5905C57.5018 28.702 54.7403 28.3615 52.8821 28.4898C51.9838 28.5515 50.2909 29.0056 50.2909 32.1372C50.2934 32.1347 50.2909 32.1347 50.2884 32.1347Z" fill="url(#paint0_linear_1282_1206)"></path>
<path d="M50.2884 32.1347V51.8844C50.2884 56.6941 46.3819 60.5364 41.6166 60.5364H15.204C14.9227 60.5364 14.7598 60.5907 14.6882 60.6252C14.6339 60.6499 14.6142 60.6697 14.592 60.7042L10.1278 67.3277C8.38552 69.9411 4.93556 70.4914 2.46531 68.875L2.43323 68.8528L2.40115 68.8306C0.816835 67.7497 0 66.0099 0 64.2455V28.2307C0 23.4555 3.83987 19.5787 8.6397 19.5787H31.748C31.7825 19.5787 31.8146 19.5787 31.8467 19.5787H33.4335C34.7537 19.5787 35.9926 18.6187 35.5854 16.985C35.2103 15.4846 34.4897 14.0138 33.9739 13.1945C33.2459 12.0322 33.1719 10.5737 33.779 9.34479C34.3861 8.11336 35.5854 7.28419 36.9525 7.14846C38.3518 7.01027 40.1113 7.27925 41.9276 8.12077C42.1151 7.09664 42.7049 6.17122 43.5884 5.56908C44.7483 4.77446 46.2437 4.65354 47.5171 5.25074C49.2692 6.07004 51.1151 7.93075 52.2725 10.7638C54.3504 10.2677 56.8083 10.1764 59.4192 11.0155C61.1146 11.5609 62.2374 13.1649 62.1708 14.9392L62.1683 14.9763C62.9975 15.3637 63.8168 15.8671 64.5991 16.5087C65.8478 17.5304 66.3512 19.206 65.8749 20.7459C65.6676 21.4147 65.2925 22.002 64.8014 22.461C65.0902 22.8189 65.3666 23.2038 65.6257 23.6184C66.4795 24.9757 66.4302 26.7155 65.4998 28.0234C64.5695 29.3313 62.9407 29.9507 61.3762 29.5905C57.5018 28.702 54.7403 28.3615 52.8821 28.4898C51.9838 28.5515 50.2909 29.0056 50.2909 32.1372C50.2934 32.1347 50.2909 32.1347 50.2884 32.1347Z" fill="url(#paint1_linear_1282_1206)"></path>
<path fill-rule="evenodd" clip-rule="evenodd" d="M4.64169 65.5548C4.20983 65.2611 3.97046 64.7848 3.97046 64.2419V28.2271C3.97046 25.6211 6.0508 23.5383 8.6395 23.5383H41.6164C44.2274 23.5383 46.3176 25.6458 46.3176 28.2271V51.8808C46.3176 54.4843 44.2051 56.5696 41.6164 56.5696H15.2038C13.6368 56.5696 12.1832 57.1742 11.2973 58.487L6.82321 65.1229C6.34446 65.8509 5.36969 66.031 4.64169 65.5548Z" fill="#F38F30"></path>
<path fill-rule="evenodd" clip-rule="evenodd" d="M4.64169 65.5548C4.20983 65.2611 3.97046 64.7848 3.97046 64.2419V28.2271C3.97046 25.6211 6.0508 23.5383 8.6395 23.5383H41.6164C44.2274 23.5383 46.3176 25.6458 46.3176 28.2271V51.8808C46.3176 54.4843 44.2051 56.5696 41.6164 56.5696H15.2038C13.6368 56.5696 12.1832 57.1742 11.2973 58.487L6.82321 65.1229C6.34446 65.8509 5.36969 66.031 4.64169 65.5548Z" fill="#FF8833"></path>
<path d="M49.7314 25.1653C52.3004 24.035 56.5203 24.4027 62.2678 25.7205C60.6168 23.0973 57.996 22.1102 54.8965 21.777C56.8584 20.3876 60.5107 19.7041 62.0851 19.5659C58.4772 16.6119 53.5269 17.9717 51.6514 18.9637C53.253 17.3276 56.1575 15.2695 58.2058 14.7808C54.2894 13.5223 50.7457 15.304 49.4649 16.3528C49.2231 11.5826 46.9453 9.35173 45.8348 8.8335C45.9459 10.4203 45.9459 14.1664 45.0599 16.4441C42.449 11.8096 38.8288 10.9434 37.3456 11.089C38.4487 12.8486 40.1194 16.5305 39.7443 19.5757H41.6223C45.3412 19.5757 48.4951 21.9053 49.7314 25.1653Z" fill="#009F3C"></path>
<path d="M49.7314 25.1653C52.3004 24.035 56.5203 24.4027 62.2678 25.7205C60.6168 23.0973 57.996 22.1102 54.8965 21.777C56.8584 20.3876 60.5107 19.7041 62.0851 19.5659C58.4772 16.6119 53.5269 17.9717 51.6514 18.9637C53.253 17.3276 56.1575 15.2695 58.2058 14.7808C54.2894 13.5223 50.7457 15.304 49.4649 16.3528C49.2231 11.5826 46.9453 9.35173 45.8348 8.8335C45.9459 10.4203 45.9459 14.1664 45.0599 16.4441C42.449 11.8096 38.8288 10.9434 37.3456 11.089C38.4487 12.8486 40.1194 16.5305 39.7443 19.5757H41.6223C45.3412 19.5757 48.4951 21.9053 49.7314 25.1653Z" fill="#5CD65C"></path>
<path d="M13.0981 30.0378H37.1886C38.2868 30.0378 39.1752 30.9287 39.1752 32.0244C39.1752 33.1226 38.2843 34.011 37.1886 34.011H13.0981C12 34.011 11.1116 33.1201 11.1116 32.0244C11.1116 30.9287 12.0024 30.0378 13.0981 30.0378Z" fill="#C53119"></path>
<path d="M13.0981 30.0378H37.1886C38.2868 30.0378 39.1752 30.9287 39.1752 32.0244C39.1752 33.1226 38.2843 34.011 37.1886 34.011H13.0981C12 34.011 11.1116 33.1201 11.1116 32.0244C11.1116 30.9287 12.0024 30.0378 13.0981 30.0378Z" fill="#B34A01"></path>
<path d="M16.8353 37.9871H33.4509C34.549 37.9871 35.4374 38.8779 35.4374 39.9736C35.4374 41.0718 34.5466 41.9602 33.4509 41.9602H16.8353C15.7372 41.9602 14.8488 41.0693 14.8488 39.9736C14.8463 38.8779 15.7372 37.9871 16.8353 37.9871Z" fill="#C53119"></path>
<path d="M16.8353 37.9871H33.4509C34.549 37.9871 35.4374 38.8779 35.4374 39.9736C35.4374 41.0718 34.5466 41.9602 33.4509 41.9602H16.8353C15.7372 41.9602 14.8488 41.0693 14.8488 39.9736C14.8463 38.8779 15.7372 37.9871 16.8353 37.9871Z" fill="#B34A01"></path>
<path d="M21.5008 45.9365H28.7857C29.8839 45.9365 30.7723 46.8274 30.7723 47.9231C30.7723 49.0212 29.8814 49.9096 28.7857 49.9096H21.5008C20.4027 49.9096 19.5143 49.0188 19.5143 47.9231C19.5143 46.8274 20.4027 45.9365 21.5008 45.9365Z" fill="#C53119"></path>
<path d="M21.5008 45.9365H28.7857C29.8839 45.9365 30.7723 46.8274 30.7723 47.9231C30.7723 49.0212 29.8814 49.9096 28.7857 49.9096H21.5008C20.4027 49.9096 19.5143 49.0188 19.5143 47.9231C19.5143 46.8274 20.4027 45.9365 21.5008 45.9365Z" fill="#B34A01"></path>
<path d="M95.4097 59.4817C92.9148 59.4817 90.6592 59.0573 88.6135 58.2084C86.5701 57.3594 84.818 56.1379 83.3842 54.519C81.9233 52.9002 80.8103 50.9087 80.0133 48.547C79.2162 46.1853 78.8188 43.4782 78.8188 40.4502C78.8188 37.4247 79.2433 34.7422 80.1194 32.3806C80.9954 30.0189 82.1898 28.0274 83.7297 26.4086C85.2696 24.7897 87.0736 23.5681 89.144 22.6921C91.2145 21.8432 93.47 21.4187 95.9132 21.4187C97.2408 21.4187 98.4352 21.4977 99.4692 21.6309C100.506 21.7642 101.434 21.9764 102.282 22.2405C103.131 22.507 103.901 22.8253 104.592 23.1955C105.308 23.5681 105.999 23.9926 106.687 24.4442V28.9824H104.459C104.035 28.5308 103.531 28.1335 102.998 27.7609C102.468 27.3883 101.858 27.0452 101.167 26.7787C100.476 26.4875 99.7333 26.2753 98.9115 26.1149C98.0897 25.9545 97.1322 25.8755 96.0982 25.8755C94.4004 25.8755 92.8605 26.1939 91.4539 26.8034C90.0744 27.4129 88.88 28.3433 87.8707 29.5377C86.8885 30.7592 86.1185 32.2449 85.5608 34.0513C85.0031 35.8552 84.7366 37.9257 84.7366 40.2627C84.7366 45.2007 85.6916 48.9147 87.6041 51.4121C89.5167 53.907 92.1967 55.1286 95.6466 55.1286C96.841 55.1286 97.9022 55.0225 98.8572 54.8102C99.8122 54.598 100.661 54.3068 101.431 53.9342C102.201 53.5615 102.892 53.1371 103.529 52.6608C104.165 52.182 104.75 51.6515 105.281 51.0937H107.166V55.5259C106.53 56.0836 105.811 56.6142 104.99 57.0929C104.193 57.5717 103.316 57.9961 102.334 58.3663C101.379 58.7118 100.318 59.003 99.1756 59.2152C98.0132 59.3756 96.7645 59.4817 95.4097 59.4817Z" fill="white"></path>
<path d="M131.696 59.1624C131.165 59.1624 130.714 59.1081 130.341 59.0292C129.968 58.9502 129.65 58.7898 129.411 58.5504C129.171 58.311 128.986 57.9927 128.828 57.5954C128.668 57.1981 128.562 56.6922 128.51 56.0555C127.473 57.1981 126.282 58.047 124.954 58.6047C123.626 59.1896 122.035 59.4536 120.149 59.4536C118.876 59.4536 117.706 59.2685 116.645 58.9231C115.584 58.5776 114.653 58.047 113.883 57.356C113.113 56.665 112.504 55.789 112.079 54.755C111.655 53.721 111.416 52.4994 111.416 51.1446C111.416 49.7108 111.682 48.4646 112.213 47.401C112.743 46.3398 113.513 45.4366 114.468 44.7457C115.423 44.03 116.566 43.5241 117.891 43.1786C119.219 42.8331 120.677 42.648 122.244 42.648C123.439 42.648 124.527 42.7023 125.482 42.8331C126.437 42.9664 127.395 43.1515 128.377 43.3908V39.7015C128.377 38.0284 127.898 36.8093 126.943 36.064C125.988 35.3212 124.606 34.9239 122.748 34.9239C121.075 34.9239 119.616 35.1361 118.343 35.5877C117.069 36.0393 115.981 36.5699 115.105 37.2066H113.353V33.1718C113.99 32.8534 114.626 32.5622 115.344 32.2686C116.035 31.9774 116.805 31.738 117.627 31.5258C118.449 31.3135 119.352 31.1284 120.28 30.9952C121.235 30.8619 122.271 30.783 123.387 30.783C125.033 30.783 126.518 30.9434 127.819 31.2617C129.12 31.5801 130.208 32.0835 131.084 32.7473C131.96 33.4383 132.651 34.3144 133.127 35.4026C133.606 36.4909 133.843 37.7915 133.843 39.3042V59.1328H131.693V59.1624H131.696ZM121.901 55.7372C122.644 55.7372 123.308 55.6582 123.917 55.4978C124.527 55.3374 125.085 55.1005 125.615 54.8068C126.146 54.5156 126.625 54.1701 127.076 53.7975C127.528 53.4002 127.952 52.9757 128.35 52.5241V46.6039C127.552 46.4188 126.758 46.2856 125.882 46.2066C125.033 46.1005 124.102 46.0733 123.147 46.0733C122.217 46.0733 121.344 46.1523 120.574 46.3398C119.776 46.5249 119.113 46.8186 118.555 47.1888C117.997 47.5614 117.546 48.0648 117.227 48.6744C116.909 49.2839 116.749 50.002 116.749 50.8509C116.749 51.727 116.882 52.4698 117.146 53.0818C117.412 53.6914 117.755 54.1973 118.234 54.5946C118.686 54.9919 119.243 55.2855 119.88 55.4706C120.467 55.6582 121.158 55.7372 121.901 55.7372Z" fill="white"></path>
<path d="M154.495 35.6179C153.54 35.6179 152.663 35.6969 151.842 35.8845C151.017 36.0696 150.275 36.3089 149.586 36.6001C148.898 36.8913 148.286 37.2368 147.701 37.6094C147.143 37.9821 146.64 38.3794 146.215 38.752V59.1384H140.747V31.2401H144.169C144.515 31.2401 144.779 31.2919 145.045 31.3734C145.285 31.4795 145.497 31.6399 145.655 31.9311C145.815 32.2223 145.946 32.5949 146.028 33.0983C146.107 33.6018 146.188 34.2656 146.213 35.0898C146.691 34.5593 147.195 34.0287 147.753 33.5499C148.31 33.0712 148.92 32.6221 149.611 32.2494C150.275 31.8768 150.99 31.5585 151.76 31.3462C152.53 31.1068 153.327 31.0007 154.203 31.0007C154.522 31.0007 154.813 31.0279 155.079 31.055C155.319 31.1068 155.531 31.134 155.716 31.1883V35.6747C155.531 35.6747 155.343 35.6747 155.158 35.6476C155.025 35.6476 154.892 35.6476 154.761 35.6476C154.655 35.6179 154.549 35.6179 154.495 35.6179Z" fill="white"></path>
<path d="M174.404 35.6179C173.449 35.6179 172.573 35.6969 171.751 35.8845C170.929 36.0696 170.184 36.3089 169.496 36.6001C168.805 36.8913 168.195 37.2368 167.61 37.6094C167.052 37.9821 166.549 38.3794 166.125 38.752V59.1384H160.656V31.2401H164.081C164.427 31.2401 164.691 31.2919 164.957 31.3734C165.197 31.4795 165.409 31.6399 165.567 31.9311C165.725 32.2223 165.858 32.5949 165.94 33.0983C166.021 33.6018 166.097 34.2656 166.125 35.0898C166.603 34.5593 167.107 34.0287 167.664 33.5499C168.222 33.0712 168.832 32.6221 169.523 32.2494C170.187 31.8768 170.902 31.5585 171.672 31.3462C172.442 31.1068 173.239 31.0007 174.115 31.0007C174.434 31.0007 174.725 31.0279 174.991 31.055C175.231 31.1068 175.443 31.134 175.628 31.1883V35.6747C175.443 35.6747 175.255 35.6747 175.07 35.6476C174.937 35.6476 174.804 35.6476 174.673 35.6476C174.537 35.6179 174.458 35.6179 174.404 35.6179Z" fill="white"></path>
<path d="M191.764 59.4807C189.879 59.4807 188.102 59.1624 186.483 58.4985C184.864 57.8347 183.458 56.9068 182.236 55.6853C181.015 54.4637 180.087 52.9781 179.423 51.226C178.732 49.4739 178.414 47.4824 178.414 45.2811C178.414 43.0502 178.759 41.0612 179.423 39.2548C180.114 37.4755 181.042 35.9381 182.236 34.6894C183.431 33.4407 184.837 32.4857 186.483 31.7972C188.102 31.1333 189.881 30.7878 191.764 30.7878C193.65 30.7878 195.429 31.1333 197.048 31.7972C198.667 32.461 200.073 33.416 201.295 34.6894C202.489 35.9381 203.444 37.4508 204.108 39.2548C204.799 41.0341 205.117 43.0502 205.117 45.2811C205.117 47.4848 204.772 49.4739 204.108 51.226C203.417 52.9781 202.489 54.4637 201.295 55.6853C200.1 56.9068 198.694 57.8347 197.048 58.4985C195.426 59.1624 193.674 59.4807 191.764 59.4807ZM191.764 55.3916C192.959 55.3916 194.02 55.1794 194.975 54.7549C195.93 54.3305 196.754 53.7209 197.443 52.8695C198.134 52.0206 198.637 50.9841 199.01 49.7108C199.382 48.4621 199.567 46.9765 199.567 45.2786C199.567 43.5808 199.382 42.0927 199.01 40.7922C198.637 39.4917 198.134 38.4034 197.443 37.5545C196.752 36.6784 195.957 36.0146 194.975 35.563C194.02 35.1114 192.932 34.872 191.764 34.872C190.57 34.872 189.509 35.1114 188.554 35.563C187.599 36.0146 186.774 36.6784 186.111 37.5545C185.42 38.4306 184.916 39.5188 184.544 40.7922C184.171 42.0927 183.986 43.5783 183.986 45.2786C183.986 46.9765 184.171 48.4374 184.544 49.7108C184.916 50.9841 185.447 52.0206 186.111 52.8695C186.802 53.7184 187.596 54.3551 188.554 54.7549C189.506 55.1794 190.595 55.3916 191.764 55.3916Z" fill="white"></path>
<path d="M207.983 31.2401H211.354V23.6467H216.822V31.2376H223.006V35.0602H216.822V51.624C216.822 52.3668 216.901 52.9788 217.062 53.455C217.219 53.9585 217.459 54.3311 217.777 54.6223C218.096 54.9135 218.52 55.1257 218.999 55.2319C219.502 55.3651 220.087 55.4169 220.803 55.4169H223.325V58.9483C222.821 59.0816 222.185 59.2148 221.439 59.321C220.697 59.4271 219.845 59.4814 218.89 59.4814C217.696 59.4814 216.635 59.3481 215.704 59.0841C214.774 58.8175 213.979 58.3931 213.343 57.8354C212.706 57.2505 212.202 56.5077 211.857 55.6045C211.511 54.7013 211.354 53.5883 211.354 52.2853V35.0849H207.983V31.2401Z" fill="white"></path>
<path d="M257.618 55.3928C257.139 55.9233 256.609 56.4021 255.999 56.8265C255.39 57.251 254.726 57.6483 254.008 57.9691C253.292 58.2875 252.522 58.554 251.698 58.7391C250.876 58.9241 250.027 59.0056 249.149 59.0056C247.688 59.0056 246.308 58.7662 244.953 58.2628C243.626 57.7594 242.458 56.9623 241.449 55.874C240.44 54.7857 239.645 53.4062 239.033 51.6812C238.424 49.9834 238.13 47.9129 238.13 45.497C238.13 42.7898 238.475 40.5071 239.139 38.6217C239.83 36.7635 240.706 35.2507 241.819 34.0835C242.935 32.9162 244.181 32.092 245.56 31.5885C246.967 31.0851 248.374 30.8186 249.835 30.8186C251.72 30.8186 253.312 31.1098 254.612 31.6675C255.913 32.2252 257.028 32.968 257.983 33.8984C258.168 33.1284 258.487 32.4646 258.911 31.9883C259.336 31.4849 259.893 31.2455 260.557 31.2455H263.079V67.8476H257.611V55.3928H257.618ZM250.476 54.9954C251.91 54.9954 253.235 54.6771 254.432 54.0133C255.626 53.3494 256.688 52.5005 257.618 51.4912V37.6889C256.794 36.8918 255.893 36.2823 254.884 35.8578C253.874 35.4334 252.628 35.2211 251.143 35.2211C250.212 35.2211 249.284 35.3815 248.381 35.6727C247.478 35.9639 246.683 36.4945 245.992 37.2126C245.277 37.9554 244.719 38.9647 244.294 40.211C243.87 41.4843 243.631 43.0785 243.631 45.0429C243.631 46.9529 243.789 48.5471 244.109 49.8205C244.428 51.0939 244.879 52.1304 245.489 52.9003C246.098 53.6702 246.817 54.228 247.665 54.5463C248.512 54.835 249.442 54.9954 250.476 54.9954Z" fill="white"></path>
<path d="M280.019 55.261C280.735 55.261 281.426 55.182 282.144 55.0216C282.835 54.8612 283.524 54.6761 284.188 54.4121C284.851 54.1727 285.488 53.8815 286.125 53.5631C286.734 53.2448 287.346 52.9264 287.904 52.581V31.2124H293.373V59.1354H289.947C289.629 59.1354 289.365 59.1082 289.126 59.0293C288.886 58.9503 288.701 58.817 288.543 58.5777C288.383 58.3383 288.252 58.0199 288.171 57.6226C288.064 57.1982 288.013 56.6676 287.985 55.9766C287.294 56.4801 286.552 56.9588 285.757 57.3833C284.96 57.8077 284.138 58.1804 283.289 58.4987C282.44 58.817 281.537 59.0564 280.634 59.2415C279.731 59.4266 278.83 59.508 277.9 59.508C276.811 59.508 275.802 59.3748 274.874 59.1354C273.944 58.896 273.149 58.4715 272.458 57.8867C271.767 57.3018 271.237 56.5319 270.864 55.5768C270.491 54.6218 270.282 53.4274 270.282 52.0208V31.1853H275.75V50.8017C275.75 51.6778 275.856 52.4206 276.069 53.0054C276.281 53.5903 276.572 54.0394 276.945 54.3602C277.317 54.6786 277.769 54.9179 278.299 55.0512C278.798 55.1795 279.38 55.261 280.019 55.261Z" fill="white"></path>
<path d="M304.653 46.2338C304.732 47.8798 304.944 49.2864 305.368 50.4537C305.766 51.6209 306.323 52.5759 307.041 53.2941C307.757 54.0369 308.633 54.5674 309.642 54.8858C310.679 55.2041 311.846 55.3892 313.147 55.3892C314.926 55.3892 316.463 55.1498 317.712 54.6464C318.961 54.143 320.022 53.531 320.871 52.8153H322.65V56.6108C322.147 56.9563 321.562 57.3017 320.925 57.6448C320.288 57.9903 319.519 58.2815 318.697 58.5727C317.875 58.8392 316.918 59.0761 315.884 59.2365C314.847 59.3969 313.655 59.4759 312.352 59.4759C310.203 59.4759 308.317 59.1575 306.671 58.4937C305.025 57.8299 303.619 56.902 302.503 55.6533C301.363 54.4317 300.512 52.9461 299.929 51.194C299.344 49.4419 299.053 47.4775 299.053 45.2738C299.053 43.0429 299.372 41.0539 300.035 39.2475C300.699 37.4682 301.575 35.9308 302.715 34.6821C303.856 33.4334 305.21 32.4783 306.75 31.7898C308.317 31.126 309.988 30.7805 311.794 30.7805C313.625 30.7805 315.271 31.047 316.732 31.6023C318.193 32.16 319.412 32.9818 320.422 34.0972C321.431 35.2127 322.174 36.6193 322.704 38.3171C323.235 40.0149 323.502 42.0064 323.502 44.2891C323.502 44.6618 323.502 45.0319 323.474 45.4317C323.447 45.829 323.447 46.0956 323.447 46.1745H304.655V46.2338H304.653ZM311.794 34.5562C310.891 34.5562 310.042 34.6895 309.245 34.9807C308.448 35.2719 307.76 35.7235 307.12 36.3873C306.511 37.024 305.98 37.8729 305.581 38.9094C305.156 39.9434 304.89 41.1921 304.756 42.6777H318.107C318.08 41.1649 317.895 39.8916 317.604 38.8822C317.312 37.8482 316.888 37.024 316.357 36.3873C315.827 35.7506 315.163 35.2719 314.393 35.0078C313.598 34.6895 312.749 34.5562 311.794 34.5562Z" fill="white"></path>
<path d="M336.586 59.4279C335.446 59.4279 334.409 59.3489 333.479 59.2157C332.551 59.0824 331.727 58.8973 331.011 58.658C330.268 58.4186 329.632 58.1545 329.047 57.888C328.462 57.5968 327.931 57.3032 327.48 56.9848V52.7649H329.232C329.55 53.0833 329.947 53.3744 330.399 53.6681C330.851 53.9593 331.381 54.2258 331.966 54.4652C332.551 54.7046 333.212 54.8897 333.958 55.0501C334.7 55.2105 335.497 55.2623 336.346 55.2623C340.221 55.2623 342.16 53.9075 342.16 51.2275C342.16 50.6426 342.081 50.1392 341.894 49.7147C341.709 49.2903 341.39 48.9176 340.939 48.5993C340.487 48.281 339.878 48.0144 339.135 47.7775C338.392 47.5381 337.437 47.3531 336.295 47.168C334.888 46.9558 333.642 46.6646 332.553 46.2919C331.465 45.9193 330.535 45.4159 329.792 44.7792C329.049 44.1425 328.464 43.3725 328.094 42.4422C327.697 41.5143 327.512 40.3989 327.512 39.0983C327.512 37.7707 327.751 36.6034 328.227 35.5941C328.706 34.5848 329.37 33.7359 330.246 33.0449C331.122 32.3539 332.156 31.8233 333.405 31.4778C334.651 31.1323 336.033 30.9473 337.573 30.9473C339.537 30.9473 341.156 31.1323 342.457 31.5321C343.757 31.9048 344.873 32.381 345.773 32.9116V37.0797H344.021C343.33 36.5491 342.481 36.0704 341.447 35.6731C340.411 35.2758 339.137 35.0882 337.6 35.0882C335.821 35.0882 334.493 35.3794 333.644 35.9914C332.795 36.6009 332.371 37.5042 332.371 38.6986C332.371 39.2563 332.477 39.7326 332.689 40.1323C332.901 40.5297 333.247 40.8751 333.698 41.1663C334.177 41.4575 334.787 41.7241 335.53 41.9091C336.272 42.0942 337.2 42.3065 338.316 42.4669C339.856 42.7062 341.183 42.9974 342.296 43.3947C343.436 43.7921 344.367 44.298 345.109 44.9346C345.852 45.5713 346.41 46.3684 346.783 47.3235C347.155 48.2785 347.34 49.3939 347.34 50.7216C347.34 52.0493 347.128 53.2437 346.704 54.3319C346.279 55.4202 345.615 56.3234 344.739 57.0934C343.863 57.8362 342.748 58.4211 341.395 58.8455C340.009 59.2157 338.417 59.4279 336.586 59.4279Z" fill="white"></path>
<path d="M350.281 31.2401H353.652V23.6467H359.121V31.2376H365.305V35.0602H359.121V51.624C359.121 52.3668 359.2 52.9788 359.36 53.455C359.518 53.9585 359.757 54.3311 360.076 54.6223C360.394 54.9135 360.819 55.1257 361.297 55.2319C361.801 55.3651 362.386 55.4169 363.101 55.4169H365.623V58.9483C365.12 59.0816 364.483 59.2148 363.738 59.321C362.995 59.4271 362.144 59.4814 361.189 59.4814C359.994 59.4814 358.933 59.3481 358.003 59.0841C357.072 58.8175 356.278 58.3931 355.641 57.8354C355.004 57.2505 354.501 56.5077 354.156 55.6045C353.81 54.7013 353.652 53.5883 353.652 52.2853V35.0849H350.281V31.2401Z" fill="white"></path>
<defs>
<linearGradient id="paint0_linear_1282_1206" x1="43.3227" y1="12.4917" x2="33.0561" y2="28.0572" gradientUnits="userSpaceOnUse">
<stop stop-color="#007939"></stop>
<stop offset="1" stop-color="#C53119"></stop>
</linearGradient>
<linearGradient id="paint1_linear_1282_1206" x1="49.3439" y1="16.4661" x2="39.0775" y2="32.031" gradientUnits="userSpaceOnUse">
<stop stop-color="#2D862D"></stop>
<stop offset="1" stop-color="#B34A00"></stop>
</linearGradient>
</defs>
</svg>